<mxfile host="app.diagrams.net" modified="2024-06-18T09:15:29.933Z" agent="Mozilla/5.0 (Windows NT 10.0; Win64; x64) AppleWebKit/537.36 (KHTML, like Gecko) Chrome/125.0.0.0 Safari/537.36" version="24.5.5" etag="xSh13dLWP5yQIgghBwF-" type="github">
  <diagram name="第 1 页" id="i78vZYNMH3eGaz_cFO28">
    <mxGraphModel>
      <root>
        <mxCell id="0" />
        <mxCell id="1" parent="0" />
      </root>
    </mxGraphModel>
  </diagram>
</mxfile>
